<?xml version="1.0" standalone="no"?>
<!DOCTYPE svg PUBLIC "-//W3C//DTD SVG 20010904//EN"
 "http://www.w3.org/TR/2001/REC-SVG-20010904/DTD/svg10.dtd">
<svg version="1.0" xmlns="http://www.w3.org/2000/svg"
 width="512.000000pt" height="512.000000pt" viewBox="0 0 512.000000 512.000000"
 preserveAspectRatio="xMidYMid meet">

<g transform="translate(0.000000,512.000000) scale(0.100000,-0.100000)"
fill="#000000" stroke="none">
<path d="M2573 4605 c-33 -24 -72 -63 -88 -85 -27 -39 -75 -181 -75 -223 0
-32 -71 -146 -89 -144 -9 1 -70 -54 -137 -124 -202 -212 -249 -335 -275 -729
-11 -171 -9 -211 18 -395 19 -123 22 -409 6 -512 -5 -34 -7 -66 -4 -71 3 -4
28 -16 54 -26 41 -16 47 -21 41 -39 -4 -12 -8 -23 -9 -25 -2 -2 -36 1 -77 7
-40 6 -109 12 -153 13 l-79 3 -8 -45 c-4 -25 -19 -198 -32 -385 l-25 -340 20
-15 c22 -18 25 -7 -137 -517 -49 -155 -62 -208 -55 -226 5 -13 5 -42 0 -68
-14 -75 -12 -96 14 -102 12 -3 40 -12 62 -21 22 -8 54 -15 72 -16 27 0 32 4
38 30 4 16 8 30 9 30 2 0 50 -23 107 -51 l104 -52 140 1 c153 2 195 7 195 26
0 25 -59 67 -149 106 -112 47 -124 56 -117 86 4 13 13 86 21 164 8 77 22 157
30 177 9 21 51 89 93 151 72 106 127 194 135 217 7 18 357 -8 369 -28 4 -7 22
-46 39 -87 85 -205 119 -272 204 -399 74 -111 95 -152 109 -207 10 -38 29 -95
43 -126 30 -67 35 -69 133 -35 49 17 64 26 62 39 -3 20 5 22 138 38 74 8 111
18 165 45 90 44 181 124 172 149 -6 15 -14 17 -40 13 -123 -22 -159 -27 -217
-27 l-65 1 48 42 48 43 -47 64 c-26 36 -77 97 -114 135 -170 177 -190 216
-396 744 -73 185 -84 222 -84 275 0 57 -2 62 -30 78 -21 12 -30 25 -30 43 0
22 10 30 68 58 l67 33 -5 224 c-3 124 -5 274 -5 334 l0 110 95 36 c134 51 175
74 197 112 11 18 50 56 86 83 41 30 70 60 73 75 4 14 16 35 27 47 12 13 20 35
19 53 -1 25 6 35 39 55 21 14 39 30 39 35 0 15 -4 13 -67 -25 -32 -19 -62 -35
-66 -35 -4 0 -21 16 -38 35 -29 32 -34 34 -72 29 -23 -4 -54 -15 -69 -25 -14
-11 -29 -19 -34 -19 -4 0 -32 -24 -63 -53 -55 -52 -187 -135 -198 -124 -3 3
-12 46 -20 94 -8 48 -26 122 -39 163 -21 62 -23 78 -13 97 15 29 9 41 -78 157
-35 47 -61 91 -58 97 4 6 -7 30 -24 54 -17 24 -27 46 -23 49 5 3 32 -4 61 -16
60 -26 104 -18 109 19 2 12 17 36 33 54 16 17 29 35 29 39 0 5 12 8 27 7 25
-2 28 2 34 46 4 27 14 56 22 65 8 10 18 27 22 40 4 13 31 39 61 58 62 40 66
54 30 129 -51 109 -148 189 -279 230 -43 14 -80 25 -82 25 -1 0 -30 -20 -62
-45z"/>
</g>
</svg>
